<?xml version="1.0" encoding="utf-8"?>
<!-- Generator: Adobe Illustrator 16.0.0, SVG Export Plug-In . SVG Version: 6.00 Build 0)  -->
<!DOCTYPE svg PUBLIC "-//W3C//DTD SVG 1.1//EN" "http://www.w3.org/Graphics/SVG/1.1/DTD/svg11.dtd">
<svg version="1.1" id="Layer_1" xmlns="http://www.w3.org/2000/svg" xmlns:xlink="http://www.w3.org/1999/xlink" x="0px" y="0px"
	 width="548px" height="152px" viewBox="0 0 548 152" enable-background="new 0 0 548 152" xml:space="preserve">
<g enable-background="new    ">
	<path fill="#FFFFFF" d="M198.457,114.796h4.107l5.291,24.309l5.328-24.309h4.07l0.555,29.97h-3.367l-0.333-21.756l-5.069,21.756
		h-2.368l-5.032-21.756l-0.333,21.756h-3.404L198.457,114.796z"/>
	<path fill="#FFFFFF" d="M227.131,114.796h4.033l6.401,29.97h-3.959l-1.369-7.548h-6.105l-1.443,7.548h-3.922L227.131,114.796z
		 M231.682,134.221l-2.516-13.505l-2.479,13.505H231.682z"/>
	<path fill="#FFFFFF" d="M240.599,114.796h11.618v3.107h-7.437v9.916h6.031v2.96h-6.031v10.989h7.511v2.997h-11.692V114.796z"/>
	<path fill="#FFFFFF" d="M256.971,142.768c-1.32-1.554-2.054-3.688-2.202-6.401l3.7-0.999c0.123,1.925,0.5,3.479,1.128,4.662
		c0.629,1.185,1.671,1.776,3.126,1.776c1.085,0,1.906-0.302,2.46-0.906c0.555-0.604,0.833-1.474,0.833-2.608
		c0-1.233-0.259-2.258-0.777-3.071c-0.518-0.814-1.345-1.714-2.479-2.701l-5.032-4.439c-1.012-0.889-1.745-1.844-2.201-2.868
		c-0.457-1.023-0.685-2.275-0.685-3.755c0-2.195,0.629-3.897,1.887-5.106c1.258-1.208,2.972-1.812,5.143-1.812
		c2.368,0,4.156,0.629,5.365,1.887c1.208,1.258,1.936,3.207,2.183,5.846l-3.552,0.962c-0.124-1.751-0.462-3.102-1.018-4.052
		c-0.555-0.949-1.548-1.424-2.979-1.424c-1.061,0-1.875,0.277-2.442,0.832c-0.568,0.556-0.851,1.376-0.851,2.461
		c0,0.888,0.148,1.634,0.444,2.238c0.296,0.604,0.801,1.215,1.517,1.831l5.069,4.44c1.307,1.16,2.349,2.418,3.126,3.774
		c0.777,1.356,1.166,2.898,1.166,4.625c0,2.195-0.666,3.935-1.998,5.217s-3.059,1.924-5.18,1.924
		C260.208,145.099,258.291,144.321,256.971,142.768z"/>
	<path fill="#FFFFFF" d="M276.451,117.903h-5.069v-3.107h14.17v3.107h-4.92v26.862h-4.182V117.903z"/>
	<path fill="#FFFFFF" d="M288.439,114.796h6.03c3.034,0,5.26,0.623,6.679,1.868c1.418,1.246,2.127,3.274,2.127,6.087
		c0,3.848-1.233,6.179-3.699,6.992l4.255,15.022h-4.033l-3.922-14.06h-3.256v14.06h-4.181V114.796z M294.211,127.709
		c1.801,0,3.09-0.357,3.867-1.073c0.776-0.715,1.164-2.011,1.164-3.885c0-1.233-0.135-2.202-0.406-2.905
		c-0.271-0.702-0.753-1.221-1.443-1.554s-1.664-0.499-2.923-0.499h-1.85v9.916H294.211z"/>
	<path fill="#FFFFFF" d="M307.864,114.796h4.106v29.97h-4.106V114.796z"/>
	<path fill="#FFFFFF" d="M316.817,114.796h2.849l8.51,19.905v-19.905h3.479v29.97h-2.664l-8.621-20.461v20.461h-3.552V114.796z"/>
	<path fill="#FFFFFF" d="M341.09,114.796h4.033l6.4,29.97h-3.959l-1.369-7.548h-6.105l-1.442,7.548h-3.922L341.09,114.796z
		 M345.641,134.221l-2.516-13.505l-2.479,13.505H345.641z"/>
</g>
<g id="Layer_1_1_">
	<g>
		<path fill="#FFFFFF" d="M93.552,63.979c-6.641,18.356-24.238,30.343-43.378,30.343c-3.5,0-6.979-0.495-10.332-1.476
			c-8.103-1.975-15.497-6.155-21.393-12.053C9.875,72.22,5.102,60.694,5.102,48.57c0-12.125,4.773-23.649,13.347-32.223
			C27.022,7.773,38.546,3,50.671,3c4.198,0,8.388,0.585,12.427,1.73c4.206,1.191,8.074,2.953,11.793,5.244l0.15,0.092l0.184,11.429
			l-0.658-1.847c-2.728-7.656-14.057-13.26-21.792-13.26c-6.383,0-12.607,1.602-18.224,4.627c-4.217,2.272-7.961,5.346-11.042,9.012
			c-6.71,7.984-10.119,18.277-10.119,28.658c0,10.763,3.662,21.421,10.852,29.499c4.471,5.025,10.166,8.854,16.632,10.757
			c3.208,0.774,6.496,1.16,9.796,1.16c18.549,0,32.889-11.533,39.45-28.409l18.211-46.862l23.379,60.236h-4.226l-7.126-18.025
			H96.306L93.552,63.979L93.552,63.979z M97.819,53.213h21.027l-10.514-26.59L97.819,53.213L97.819,53.213z M207.552,75.064h-15.285
			V18.141h15.285c12.686,0,25.685,6.655,30.725,18.746c1.287,3.086,1.953,6.369,1.953,9.715c0,3.347-0.667,6.629-1.953,9.716
			C233.237,68.408,220.238,75.064,207.552,75.064L207.552,75.064z M196.952,21.18v50.847h10.602
			c14.269,0.067,26.98-10.81,26.98-25.425s-12.712-25.492-26.98-25.422H196.952L196.952,21.18z M48.825,72.102h27.9v2.965H44.139
			V18.141h4.686V72.102L48.825,72.102z M251.022,18.141h4.687v56.924h-4.687V18.141L251.022,18.141z M299.438,57.039h-24.054
			l-7.125,18.025h-4.227l23.378-60.236l23.38,60.236h-4.228L299.438,57.039L299.438,57.039z M276.898,53.213h21.027l-10.516-26.59
			L276.898,53.213L276.898,53.213z M176.514,18.141h4.232v35.541c0,12.574-10.295,22.869-22.87,22.869
			c-12.577,0-22.869-10.292-22.869-22.869V18.141h5.14V52.14c0,8.386,4.508,17.176,12.667,20.233
			c1.768,0.663,3.628,1.006,5.516,1.006c1.887,0,3.746-0.343,5.512-1.005c8.159-3.058,12.672-11.851,12.672-20.234V18.141
			L176.514,18.141z M337.133,21.107v22.283h25.876v2.963h-25.876v28.705h-4.687V18.145h32.58v2.963H337.133L337.133,21.107z
			 M379.748,21.107v22.283h25.876v2.963h-25.876v25.742h27.896v2.963h-32.58V18.145h32.58v2.963H379.748L379.748,21.107z
			 M470.417,21.107v22.283h25.876v2.963h-25.876v25.742h27.896v2.963h-32.58V18.145h32.58v2.963H470.417L470.417,21.107z
			 M440.18,45.791c5.766,1.975,8.854,7.194,9.963,13.077l1.849,9.828c0.974,5.168,4.148,7.678,9.311,6.756l0.38-0.067v0.906
			l-0.146,0.096c-2.387,1.584-5.41,2.262-8.191,1.408c-3-0.919-4.884-3.338-5.711-6.307l-2.575-11.717
			c-1.524-6.938-5.296-12.994-13.056-13.391l-0.549-0.027h-6.218v-2.963l8.357-0.002c5.286-0.001,11.062-2.742,12.921-7.984
			c0.354-1.004,0.539-2.053,0.539-3.118c0-1.068-0.186-2.121-0.541-3.126c-1.861-5.239-7.634-7.977-12.919-7.977h-11.085
			c-0.019,17.851-0.021,35.701-0.021,53.552v0.321h-4.685V18.143l18.465,0.002c7.541,0.002,15.47,6.205,15.47,14.104
			C451.737,39.721,446.796,44.084,440.18,45.791L440.18,45.791z M538.118,28.301c-2.113-5.076-7.964-7.97-13.211-8.351
			c-5.499-0.399-12.754,2.053-14.275,7.978c-2.539,9.872,9.494,13.614,16.479,16.313c4.723,1.823,9.744,4.583,12.878,8.672
			c2.226,2.898,3.354,6.337,2.743,9.987c-1.049,6.263-6.633,10.688-12.397,12.518c-8.104,2.566-16.792,0.545-23.854-3.884
			l-0.15-0.095v-8.886l0.613,1.291c0.528,1.111,1.212,2.141,2.021,3.066c2.478,2.843,6.025,4.648,9.655,5.521
			c5.528,1.33,13.348,0.761,17.128-4.073c1.331-1.703,1.934-3.704,1.934-5.854c0-8.767-6.005-11.707-13.021-14.948
			c-6.889-3.186-16.234-5.07-18.678-13.4c-3.308-11.28,8.905-17.401,18.364-17.621c4.995-0.116,10.458,1.283,14.281,4.631
			l0.107,0.096v8.525L538.118,28.301L538.118,28.301z"/>
	</g>
</g>
</svg>
